HIERARCHY
ROOT Hips
{
	OFFSET -60.712399 36.247601 12.323000 
	CHANNELS 6 Xposition Yposition Zposition Zrotation Xrotation Yrotation
	JOINT LeftHip
	{
		OFFSET 3.430000 0.000000 0.000000 
		CHANNELS 6 Xposition Yposition Zposition Zrotation Xrotation Yrotation
		JOINT LeftKnee
		{
			OFFSET 0.000000 -18.469999 0.000000 
			CHANNELS 6 Xposition Yposition Zposition Zrotation Xrotation Yrotation
			JOINT LeftAnkle
			{
				OFFSET 0.000000 -17.950001 0.000000 
				CHANNELS 6 Xposition Yposition Zposition Zrotation Xrotation Yrotation
				End Site
				{
					OFFSET 0.000000 -3.120000 0.000000 
				}
			}
		}
	}
	JOINT RightHip
	{
		OFFSET -3.430000 0.000000 0.000000 
		CHANNELS 6 Xposition Yposition Zposition Zrotation Xrotation Yrotation
		JOINT RightKnee
		{
			OFFSET 0.000000 -18.469999 0.000000 
			CHANNELS 6 Xposition Yposition Zposition Zrotation Xrotation Yrotation
			JOINT RightAnkle
			{
				OFFSET 0.000000 -17.950001 0.000000 
				CHANNELS 6 Xposition Yposition Zposition Zrotation Xrotation Yrotation
				End Site
				{
					OFFSET 0.000000 -3.120000 0.000000 
				}
			}
		}
	}
	JOINT Chest
	{
		OFFSET 0.000000 4.570000 0.000000 
		CHANNELS 6 Xposition Yposition Zposition Zrotation Xrotation Yrotation
		JOINT CS_BVH
		{
			OFFSET 0.000000 6.570000 0.000000 
			CHANNELS 6 Xposition Yposition Zposition Zrotation Xrotation Yrotation
			JOINT LeftCollar
			{
				OFFSET 1.060000 4.190000 1.760000 
				CHANNELS 6 Xposition Yposition Zposition Zrotation Xrotation Yrotation
				JOINT LeftShoulder
				{
					OFFSET 5.810000 0.000000 0.000000 
					CHANNELS 6 Xposition Yposition Zposition Zrotation Xrotation Yrotation
					JOINT LeftElbow
					{
						OFFSET 0.000000 -12.080000 0.000000 
						CHANNELS 6 Xposition Yposition Zposition Zrotation Xrotation Yrotation
						JOINT LeftWrist
						{
							OFFSET 0.000000 -9.820000 0.000000 
							CHANNELS 6 Xposition Yposition Zposition Zrotation Xrotation Yrotation
							End Site
							{
								OFFSET 0.000000 -7.370000 0.000000 
							}
						}
					}
				}
			}
			JOINT RightCollar
			{
				OFFSET -1.060000 4.190000 1.760000 
				CHANNELS 6 Xposition Yposition Zposition Zrotation Xrotation Yrotation
				JOINT RightShoulder
				{
					OFFSET -6.060000 0.000000 0.000000 
					CHANNELS 6 Xposition Yposition Zposition Zrotation Xrotation Yrotation
					JOINT RightElbow
					{
						OFFSET 0.000000 -11.080000 0.000000 
						CHANNELS 6 Xposition Yposition Zposition Zrotation Xrotation Yrotation
						JOINT RightWrist
						{
							OFFSET 0.000000 -9.820000 0.000000 
							CHANNELS 6 Xposition Yposition Zposition Zrotation Xrotation Yrotation
							End Site
							{
								OFFSET 0.000000 -7.140010 0.000000 
							}
						}
					}
				}
			}
			JOINT Neck
			{
				OFFSET 0.000000 4.050000 0.000000 
				CHANNELS 6 Xposition Yposition Zposition Zrotation Xrotation Yrotation
				JOINT Head
				{
					OFFSET 0.000000 5.190000 0.000000 
					CHANNELS 6 Xposition Yposition Zposition Zrotation Xrotation Yrotation
					End Site
					{
						OFFSET 0.000000 4.140010 0.000000 
					}
				}
			}
		}
	}
}
MOTION
Frames: 5
Frame Time: 0.033333
22.264900 38.586796 69.418503 -1.696790 2.404020 166.393997 3.430000 -0.000000 0.000000 8.413830 -17.385000 12.977200 0.000000 -18.469999 -0.000000 -4.027890 27.769300 11.355100 0.000000 -17.950001 -0.000000 -1.418380 -5.770790 -0.265710 -3.430000 0.000000 0.000000 -13.104600 -12.120400 -3.836310 0.000000 -18.469999 -0.000000 6.144300 30.077801 11.546500 0.000000 -17.950001 -0.000000 0.878035 -15.954400 0.560045 -0.000000 4.570000 0.000000 -1.788750 8.564650 1.101430 -0.000000 6.570000 0.000000 0.334665 17.068701 2.201570 1.060000 4.190000 1.760000 -10.800700 23.445400 -6.583170 5.810000 -0.000000 0.000000 24.831600 2.782310 -5.517040 -0.000000 -12.080000 -0.000000 10.984300 -67.922600 -17.886600 -0.000000 -9.820000 0.000000 9.262320 12.232700 0.558261 -1.060000 4.190000 1.760000 27.489799 26.274099 12.373100 -6.060000 0.000000 0.000000 -62.437801 4.901970 -3.606060 -0.000000 -11.080000 -0.000000 37.311001 -67.707603 48.848598 -0.000000 -9.820000 -0.000000 -30.308701 20.899401 5.939210 -0.000000 4.050000 0.000000 0.909217 -4.982870 -2.317910 -0.000000 5.190000 0.000000 -7.391230 -10.044800 -3.533440 
21.738598 38.422199 69.717796 -2.570600 1.976210 166.723999 3.430000 -0.000000 0.000000 8.431830 -18.759100 15.067800 0.000000 -18.469999 -0.000000 -4.921690 29.597601 16.336201 0.000000 -17.950001 -0.000000 -1.340610 -6.152610 -0.279677 -3.430000 0.000000 0.000000 -15.008400 -14.099900 -4.798340 0.000000 -18.469999 -0.000000 6.344940 31.779600 10.409100 0.000000 -17.950001 -0.000000 1.854870 -16.166599 0.642623 -0.000000 4.570000 0.000000 -1.698680 9.024740 0.991572 -0.000000 6.570000 0.000000 0.640025 17.977501 1.977010 1.060000 4.190000 1.760000 -9.163360 24.638599 -6.368430 5.810000 -0.000000 0.000000 22.094400 0.022722 -6.936880 -0.000000 -12.080000 -0.000000 10.156100 -67.541199 -17.785101 -0.000000 -9.820000 0.000000 14.337800 11.781800 -0.064551 -1.060000 4.190000 1.760000 26.602301 27.074400 11.564500 -6.060000 0.000000 0.000000 -66.121201 0.223839 -3.577980 -0.000000 -11.080000 -0.000000 36.069302 -66.343300 48.415600 -0.000000 -9.820000 -0.000000 -29.961000 21.291800 5.961110 -0.000000 4.050000 0.000000 0.442425 -6.398600 -2.390150 -0.000000 5.190000 0.000000 -8.086460 -9.268120 -3.014290 
21.182800 38.246098 69.970703 -4.216210 1.906632 168.205002 3.430000 -0.000000 0.000000 8.102260 -19.135799 15.359500 0.000000 -18.469999 -0.000000 -7.019700 29.971399 13.831700 0.000000 -17.950001 -0.000000 -2.841320 -5.319910 -0.183839 -3.430000 0.000000 0.000000 -18.016001 -15.604000 -6.522230 0.000000 -18.469999 -0.000000 6.430450 33.888599 9.019970 0.000000 -17.950001 -0.000000 2.998070 -16.767401 0.766608 -0.000000 4.570000 0.000000 -1.750890 9.257150 0.496829 -0.000000 6.570000 0.000000 0.571949 18.434000 1.003340 1.060000 4.190000 1.760000 -9.366520 25.608900 -7.731360 5.810000 -0.000000 0.000000 21.616301 0.420917 -7.858190 -0.000000 -12.080000 -0.000000 9.571040 -67.200500 -19.237801 -0.000000 -9.820000 0.000000 16.060900 12.212800 -0.259112 -1.060000 4.190000 1.760000 23.080900 26.867701 10.719200 -6.060000 0.000000 0.000000 -65.694099 -5.434290 -3.363930 -0.000000 -11.080000 -0.000000 33.299198 -63.885700 45.230701 -0.000000 -9.820000 -0.000000 -29.267500 22.352900 6.069030 -0.000000 4.050000 0.000000 -0.441892 -5.746450 -3.092410 -0.000000 5.190000 0.000000 -7.360360 -10.960700 -2.900080 
20.629700 37.971600 70.121101 -4.907092 1.392848 168.597000 3.430000 -0.000000 0.000000 10.203800 -21.103500 16.395800 0.000000 -18.469999 -0.000000 -9.123910 34.445702 10.166000 0.000000 -17.950001 -0.000000 -2.919520 -6.282110 -0.214920 -3.430000 0.000000 0.000000 -19.766001 -17.582800 -7.277390 0.000000 -18.469999 -0.000000 6.290360 36.184898 7.954290 0.000000 -17.950001 -0.000000 4.240980 -17.533701 0.924116 -0.000000 4.570000 0.000000 -1.929050 9.289560 0.283243 -0.000000 6.570000 0.000000 0.406320 18.482901 0.594738 1.060000 4.190000 1.760000 -9.504250 25.758600 -8.255560 5.810000 -0.000000 0.000000 21.497700 2.251700 -8.034230 -0.000000 -12.080000 -0.000000 9.803160 -66.522202 -22.565701 -0.000000 -9.820000 0.000000 12.312900 11.411700 0.156607 -1.060000 4.190000 1.760000 23.745501 26.851101 10.669600 -6.060000 0.000000 0.000000 -67.991302 -8.037440 -3.723550 -0.000000 -11.080000 -0.000000 32.249500 -62.539101 43.410301 -0.000000 -9.820000 -0.000000 -29.167500 23.564100 6.343200 -0.000000 4.050000 0.000000 -0.009145 -5.060890 -3.284330 -0.000000 5.190000 0.000000 -7.246080 -12.185200 -2.287380 
20.017200 37.678196 70.151703 -5.041860 1.138710 168.600006 3.430000 -0.000000 0.000000 11.998200 -20.906300 16.981400 0.000000 -18.469999 -0.000000 -8.702690 36.388199 8.585800 0.000000 -17.950001 -0.000000 -4.965310 -8.312330 -0.251622 -3.430000 0.000000 0.000000 -21.041700 -18.947701 -7.651070 0.000000 -18.469999 -0.000000 6.179040 38.028198 8.121800 0.000000 -17.950001 -0.000000 5.241910 -18.255199 1.076000 -0.000000 4.570000 0.000000 -1.982140 9.393940 0.397132 -0.000000 6.570000 0.000000 0.386065 18.693399 0.790759 1.060000 4.190000 1.760000 -9.576850 25.953400 -7.871630 5.810000 -0.000000 0.000000 21.750799 3.419040 -8.672260 -0.000000 -12.080000 -0.000000 9.282280 -65.229301 -24.038799 -0.000000 -9.820000 0.000000 8.786100 10.486500 0.511493 -1.060000 4.190000 1.760000 25.908001 27.338200 10.331200 -6.060000 0.000000 0.000000 -70.586800 -9.615510 -5.107900 -0.000000 -11.080000 -0.000000 32.160099 -62.696201 42.286400 -0.000000 -9.820000 -0.000000 -29.333599 24.847700 6.701910 -0.000000 4.050000 0.000000 0.606371 -4.883240 -3.421770 -0.000000 5.190000 0.000000 -7.603020 -12.259800 -2.304040 
